# Blender 3.5.1
# www.blender.org
mtllib untitled.mtl
o chest
v -0.479751 -0.304554 0.480869
v -0.479751 -0.304554 -0.469131
v -0.479751 -0.304554 0.480869
v 0.470250 -0.445019 0.480869
v 0.470250 -0.445020 -0.469131
v 0.470250 -0.445019 0.480869
v -0.479751 -0.445019 0.480869
v -0.479751 -0.445019 0.480869
v 0.470250 -0.304554 -0.469131
v 0.470250 -0.304554 0.480869
v 0.470250 -0.304554 -0.469131
v 0.470250 -0.304554 0.480869
v 0.470250 -0.445020 -0.469131
v -0.479751 -0.445020 -0.469131
v -0.479751 -0.445020 -0.469131
v -0.479751 -0.304554 -0.469131
v -0.479751 -0.304554 0.480869
v 0.470250 -0.304554 0.480869
v 0.470250 -0.445020 -0.469131
v 0.470250 -0.445019 0.480869
v -0.479751 -0.445019 0.480869
v 0.470250 -0.304554 -0.469131
v -0.479751 -0.304554 -0.469131
v -0.479751 -0.445020 -0.469131
v 0.498836 -0.321999 0.027549
v 0.498836 -0.408521 -0.019951
v 0.498836 -0.408521 0.027549
v 0.498836 -0.321999 -0.019951
v -0.513084 -0.299407 -0.502464
v 0.503582 -0.449729 0.514202
v -0.513084 -0.449729 0.514202
v 0.503582 -0.299407 -0.502464
v 0.503582 -0.449729 -0.502464
v -0.513084 -0.449729 -0.502464
v -0.513084 -0.299406 0.514202
v 0.503582 -0.299406 0.514202
v 0.503582 -0.374391 -0.502464
v -0.513084 -0.374391 -0.502464
v 0.503582 -0.374391 0.514202
v -0.513084 -0.374391 0.514202
v 0.537858 -0.408521 -0.019951
v 0.537858 -0.321999 -0.019951
v 0.537858 -0.408521 0.027549
v 0.537858 -0.321999 0.027549
v -0.321995 -0.048460 -0.311376
v 0.312494 -0.048460 0.323114
v 0.312494 -0.048460 -0.311376
v -0.321995 -0.048460 0.323114
v 0.301165 -0.998460 -0.300047
v -0.310667 -0.998460 0.311785
v -0.310667 -0.998460 -0.300047
v 0.301165 -0.998460 0.311785
vn -0.0000 -0.0000 -0.0000
vn -0.0000 -0.0000 1.0000
vn -0.0000 -0.0000 -1.0000
vn -0.0000 1.0000 -0.0000
vn -1.0000 -0.0000 -0.0000
vn -0.0000 0.9883 0.1526
vn -0.1399 -0.9902 -0.0000
vn -0.0000 -0.9902 -0.1399
vn -0.1526 0.9883 -0.0000
vn -0.0000 -0.9902 0.1399
vn 0.1399 -0.9902 -0.0000
vn 0.1526 0.9883 -0.0000
vn -0.0000 0.9883 -0.1526
vn 1.0000 -0.0000 -0.0000
vn -0.0000 -1.0000 -0.0000
vn -0.0000 0.5245 0.8514
vn -0.8514 0.5245 -0.0000
vn 0.8514 0.5245 -0.0000
vn -0.0000 0.5245 -0.8514
vn -0.0000 -0.2922 -0.9564
vn 0.9564 -0.2922 -0.0000
vn -0.9564 -0.2922 -0.0000
vn -0.0000 -0.2922 0.9564
vt 0.557607 0.000000
vt 0.557607 1.000000
vt 0.842919 0.081455
vt 0.312787 0.267465
vt 0.557607 0.250000
vt 0.557607 1.000000
vt 0.557607 0.000000
vt 0.520642 0.750000
vt 0.447636 0.000385
vt 0.038218 0.047165
vt 0.520642 0.500000
vt 0.520642 0.750000
vt 0.520642 1.000000
vt 0.520642 0.000000
vt 0.403156 0.140620
vt 0.469754 0.046957
vt 0.520642 1.000000
vt 0.520642 0.000000
vt 0.557607 0.500000
vt 0.192909 0.734014
vt 0.298143 0.294391
vt 0.557607 0.750000
vt 0.557607 0.500000
vt 0.557607 0.750000
vt 1.017498 0.263234
vt 0.990511 0.730998
vt 0.520642 0.500000
vt 0.922812 0.026550
vt 0.011048 0.000046
vt 0.520642 0.250000
vt 0.520642 0.250000
vt 0.413086 0.026550
vt 0.910736 0.145421
vt 0.557607 0.250000
vt 0.885259 0.297339
vt 0.256713 0.078729
vt 0.557607 0.000000
vt 0.557607 1.000000
vt 0.557607 0.750000
vt 0.520642 0.500000
vt 0.520642 0.750000
vt 0.520642 1.000000
vt 0.520642 0.000000
vt 0.557607 0.500000
vt 0.557607 0.250000
vt 0.520642 0.250000
vt 0.625000 0.000000
vt 0.625000 1.000000
vt 0.875000 0.750000
vt 0.375000 0.250000
vt 0.125000 0.500000
vt 0.375000 0.000000
vt 0.375000 1.000000
vt 0.125000 0.750000
vt 0.625000 0.250000
vt 0.875000 0.500000
vt 0.557607 0.250000
vt 0.520642 0.750000
vt 0.520642 0.000000
vt 0.520642 1.000000
vt 0.557607 0.500000
vt 0.520642 0.500000
vt 0.520642 0.250000
vt 0.557607 0.000000
vt 0.557607 1.000000
vt 0.557607 0.750000
vt 0.539168 0.500000
vt 0.539168 0.250000
vt 0.539168 0.750000
vt 0.539168 1.000000
vt 0.539168 0.000000
vt 0.375000 0.500000
vt 0.625000 0.500000
vt 0.375000 0.750000
vt 0.625000 0.750000
vt 0.625932 0.499075
vt 0.255978 0.236753
vt 0.884464 0.455609
vt 0.874068 0.750925
vt 1.018639 0.453205
vt 0.989698 0.515986
vt 0.624075 0.749068
vt 0.192096 0.519002
vt 0.297348 0.452661
vt 0.875925 0.500932
vt 0.313928 0.457435
vt 0.842184 0.239480
vt 0.010851 0.254389
vt 0.126080 0.498930
vt 0.922812 0.323500
vt 0.400359 0.436321
vt 0.373920 0.751070
vt 0.469875 0.298357
vt 0.123930 0.748920
vt 0.413086 0.323500
vt 0.907939 0.441122
vt 0.038339 0.298565
vt 0.376070 0.501080
vt 0.447439 0.254728
s 1
usemtl brown_wood.001
f 1/1/1 2/5/1 3/7/2
f 4/8/1 5/11/1 6/12/2
f 7/13/1 6/12/2 8/17/2
f 9/19/1 10/22/1 11/23/3
f 12/24/1 3/6/2 10/22/1
f 13/27/1 14/30/4 5/11/1
f 15/31/1 8/18/2 14/30/4
f 16/34/1 11/23/3 2/5/1
f 10/22/1 17/38/1 18/39/1
f 6/12/2 19/40/1 20/41/1
f 8/17/2 20/41/1 21/42/1
f 2/5/1 22/44/1 23/45/1
f 3/7/2 23/45/1 17/37/1
f 5/11/1 24/46/1 19/40/1
f 14/30/4 21/43/1 24/46/1
f 11/23/3 18/39/1 22/44/1
f 25/47/5 26/50/5 27/52/5
f 1/1/1 16/34/1 2/5/1
f 4/8/1 13/27/1 5/11/1
f 7/13/1 4/8/1 6/12/2
f 9/19/1 12/24/1 10/22/1
f 12/24/1 1/2/1 3/6/2
f 13/27/1 15/31/1 14/30/4
f 15/31/1 7/14/1 8/18/2
f 16/34/1 9/19/1 11/23/3
f 10/22/1 3/6/2 17/38/1
f 6/12/2 5/11/1 19/40/1
f 8/17/2 6/12/2 20/41/1
f 2/5/1 11/23/3 22/44/1
f 3/7/2 2/5/1 23/45/1
f 5/11/1 14/30/4 24/46/1
f 14/30/4 8/18/2 21/43/1
f 11/23/3 10/22/1 18/39/1
f 25/47/5 28/55/5 26/50/5
usemtl Material.004
f 22/44/6 29/57/6 23/45/6
f 19/40/7 30/58/7 20/41/7
f 20/41/8 31/60/8 21/42/8
f 18/39/9 32/61/9 22/44/9
f 24/46/10 33/62/10 19/40/10
f 21/43/11 34/63/11 24/46/11
f 23/45/12 35/64/12 17/37/12
f 17/38/13 36/66/13 18/39/13
f 29/57/3 37/67/3 38/68/3
f 32/61/14 39/69/14 37/67/14
f 35/64/5 38/68/5 40/71/5
f 36/66/2 40/70/2 39/69/2
f 39/69/2 31/60/2 30/58/2
f 40/71/5 34/63/5 31/59/5
f 37/67/14 30/58/14 33/62/14
f 38/68/3 33/62/3 34/63/3
f 22/44/6 32/61/6 29/57/6
f 19/40/7 33/62/7 30/58/7
f 20/41/8 30/58/8 31/60/8
f 18/39/9 36/66/9 32/61/9
f 24/46/10 34/63/10 33/62/10
f 21/43/11 31/59/11 34/63/11
f 23/45/12 29/57/12 35/64/12
f 17/38/13 35/65/13 36/66/13
f 29/57/3 32/61/3 37/67/3
f 32/61/14 36/66/14 39/69/14
f 35/64/5 29/57/5 38/68/5
f 36/66/2 35/65/2 40/70/2
f 39/69/2 40/70/2 31/60/2
f 40/71/5 38/68/5 34/63/5
f 37/67/14 39/69/14 30/58/14
f 38/68/3 37/67/3 33/62/3
usemtl gold.001
f 28/55/3 41/72/3 26/50/3
f 42/73/14 43/74/14 41/72/14
f 44/75/2 27/53/2 43/74/2
f 41/72/15 27/54/15 26/51/15
f 28/56/4 44/75/4 42/73/4
f 28/55/3 42/73/3 41/72/3
f 42/73/14 44/75/14 43/74/14
f 44/75/2 25/48/2 27/53/2
f 41/72/15 43/74/15 27/54/15
f 28/56/4 25/49/4 44/75/4
usemtl wood_image.001
f 45/76/4 46/79/4 47/82/4
f 46/80/16 1/4/16 12/25/16
f 48/87/17 16/36/17 1/3/17
f 49/89/15 50/92/15 51/94/15
f 47/83/18 12/26/18 9/20/18
f 45/78/19 9/21/19 16/35/19
f 15/32/20 49/90/20 51/95/20
f 13/29/21 52/99/21 49/88/21
f 7/15/22 51/96/22 50/91/22
f 4/10/23 50/93/23 52/97/23
f 45/76/4 48/85/4 46/79/4
f 46/80/16 48/86/16 1/4/16
f 48/87/17 45/77/17 16/36/17
f 49/89/15 52/98/15 50/92/15
f 47/83/18 46/81/18 12/26/18
f 45/78/19 47/84/19 9/21/19
f 15/32/20 13/28/20 49/90/20
f 13/29/21 4/9/21 52/99/21
f 7/15/22 15/33/22 51/96/22
f 4/10/23 7/16/23 50/93/23
