# Blender 3.5.0
# www.blender.org
mtllib stone_tri.mtl
o Cube
v 1.000000 1.000000 -1.000000
v 1.000000 -1.000000 -1.000000
v 1.000000 1.000000 1.000000
v 1.000000 -1.000000 1.000000
v -1.000000 1.000000 -1.000000
v -1.000000 -1.000000 -1.000000
v -1.000000 1.000000 1.000000
v -1.000000 -1.000000 1.000000
vn -0.0000 1.0000 -0.0000
vn -0.0000 -0.0000 1.0000
vn -1.0000 -0.0000 -0.0000
vn -0.0000 -1.0000 -0.0000
vn 1.0000 -0.0000 -0.0000
vn -0.0000 -0.0000 -1.0000
vt 0.625000 0.500000
vt 0.625391 0.749608
vt 0.622936 0.247970
vt 0.624608 0.499609
vt 0.375000 0.500000
vt 0.627030 0.497936
vt 0.625000 0.750000
vt 0.374714 0.750287
vt 0.375392 0.750391
vt 0.375287 1.000286
vt 0.375000 0.750000
vt 0.374609 0.500392
vt 0.875000 0.500000
vt 0.375179 0.250179
vt 0.372970 0.252064
vt 0.125000 0.500000
vt 0.377064 0.502030
vt 0.374821 0.000179
vt 0.875000 0.750000
vt 0.624713 0.749714
vt 0.625179 0.249821
vt 0.624821 -0.000179
vt 0.625286 0.999713
vt 0.125000 0.750000
s 0
usemtl Material
f 5/13/1 3/7/1 1/1/1
f 3/8/2 8/23/2 4/10/2
f 7/21/3 6/18/3 8/22/3
f 2/5/4 8/24/4 6/16/4
f 1/2/5 4/12/5 2/4/5
f 5/15/6 2/6/6 6/17/6
f 5/13/1 7/19/1 3/7/1
f 3/8/2 7/20/2 8/23/2
f 7/21/3 5/14/3 6/18/3
f 2/5/4 4/11/4 8/24/4
f 1/2/5 3/9/5 4/12/5
f 5/15/6 1/3/6 2/6/6
