# Blender v3.1.2 OBJ File: ''
# www.blender.org
mtllib SpikeOuchyOuch.mtl
o Cone
v 0.248309 0.000005 0.014326
v 0.288134 0.000005 0.018248
v 0.326428 0.000005 0.029865
v 0.361721 0.000005 0.048729
v 0.392655 0.000005 0.074116
v 0.418042 0.000005 0.105050
v 0.436906 0.000005 0.140342
v 0.448522 0.000005 0.178637
v 0.452445 0.000005 0.218462
v 0.448522 0.000005 0.258287
v 0.436906 0.000005 0.296581
v 0.418042 0.000005 0.331874
v 0.392655 0.000005 0.362808
v 0.361721 0.000005 0.388195
v 0.326428 0.000005 0.407059
v 0.288134 0.000005 0.418676
v 0.248309 0.000005 0.422598
v 0.208484 0.000005 0.418676
v 0.170189 0.000005 0.407059
v 0.134897 0.000005 0.388195
v 0.103962 0.000005 0.362808
v 0.078576 0.000005 0.331874
v 0.059711 0.000005 0.296581
v 0.048095 0.000005 0.258287
v 0.044172 0.000005 0.218462
v 0.048095 0.000005 0.178637
v 0.059711 0.000005 0.140342
v 0.078575 0.000005 0.105050
v 0.103962 0.000005 0.074116
v 0.134897 0.000005 0.048729
v 0.170189 0.000005 0.029865
v 0.208484 0.000005 0.018248
v 0.248309 0.660648 0.218462
v 0.232788 -0.000165 -0.455813
v 0.272613 -0.000165 -0.451891
v 0.310908 -0.000165 -0.440274
v 0.346200 -0.000165 -0.421410
v 0.377134 -0.000165 -0.396023
v 0.402521 -0.000165 -0.365089
v 0.421386 -0.000165 -0.329796
v 0.433002 -0.000165 -0.291502
v 0.436924 -0.000165 -0.251677
v 0.433002 -0.000165 -0.211852
v 0.421386 -0.000165 -0.173557
v 0.402521 -0.000165 -0.138265
v 0.377134 -0.000165 -0.107331
v 0.346200 -0.000165 -0.081944
v 0.310908 -0.000165 -0.063079
v 0.272613 -0.000165 -0.051463
v 0.232788 -0.000165 -0.047541
v 0.192963 -0.000165 -0.051463
v 0.154669 -0.000165 -0.063079
v 0.119376 -0.000165 -0.081944
v 0.088442 -0.000165 -0.107331
v 0.063055 -0.000165 -0.138265
v 0.044191 -0.000165 -0.173557
v 0.032574 -0.000165 -0.211852
v 0.028652 -0.000165 -0.251677
v 0.032574 -0.000165 -0.291502
v 0.044191 -0.000165 -0.329796
v 0.063055 -0.000165 -0.365089
v 0.088442 -0.000165 -0.396023
v 0.119376 -0.000165 -0.421410
v 0.154669 -0.000165 -0.440274
v 0.192963 -0.000165 -0.451891
v 0.232788 0.660478 -0.251677
v -0.281911 -0.000000 0.033779
v -0.242086 -0.000000 0.037701
v -0.203791 -0.000000 0.049318
v -0.168499 -0.000000 0.068182
v -0.137565 -0.000000 0.093569
v -0.112178 -0.000000 0.124503
v -0.093314 -0.000000 0.159795
v -0.081697 -0.000000 0.198090
v -0.077775 -0.000000 0.237915
v -0.081697 -0.000000 0.277740
v -0.093314 -0.000000 0.316034
v -0.112178 -0.000000 0.351327
v -0.137565 -0.000000 0.382261
v -0.168499 -0.000000 0.407648
v -0.203791 -0.000000 0.426512
v -0.242086 -0.000000 0.438129
v -0.281911 -0.000000 0.442051
v -0.321736 -0.000000 0.438129
v -0.360031 -0.000000 0.426512
v -0.395323 -0.000000 0.407648
v -0.426257 -0.000000 0.382261
v -0.451644 -0.000000 0.351327
v -0.470508 -0.000000 0.316034
v -0.482125 -0.000000 0.277740
v -0.486047 -0.000000 0.237915
v -0.482125 -0.000000 0.198090
v -0.470508 -0.000000 0.159795
v -0.451644 -0.000000 0.124503
v -0.426257 -0.000000 0.093569
v -0.395323 -0.000000 0.068182
v -0.360031 -0.000000 0.049318
v -0.321736 -0.000000 0.037701
v -0.281911 0.660643 0.237915
v -0.199186 -0.000000 -0.408872
v -0.159361 -0.000000 -0.404950
v -0.121066 -0.000000 -0.393333
v -0.085774 -0.000000 -0.374469
v -0.054840 -0.000000 -0.349082
v -0.029453 -0.000000 -0.318148
v -0.010589 -0.000000 -0.282856
v 0.001028 -0.000000 -0.244561
v 0.004950 -0.000000 -0.204736
v 0.001028 -0.000000 -0.164911
v -0.010589 -0.000000 -0.126617
v -0.029453 -0.000000 -0.091324
v -0.054840 -0.000000 -0.060390
v -0.085774 -0.000000 -0.035003
v -0.121066 -0.000000 -0.016139
v -0.159361 -0.000000 -0.004522
v -0.199186 -0.000000 -0.000600
v -0.239011 -0.000000 -0.004522
v -0.277305 -0.000000 -0.016139
v -0.312598 -0.000000 -0.035003
v -0.343532 -0.000000 -0.060390
v -0.368919 -0.000000 -0.091324
v -0.387783 -0.000000 -0.126616
v -0.399400 -0.000000 -0.164911
v -0.403322 -0.000000 -0.204736
v -0.399400 -0.000000 -0.244561
v -0.387783 -0.000000 -0.282856
v -0.368919 -0.000000 -0.318148
v -0.343532 -0.000000 -0.349082
v -0.312598 -0.000000 -0.374469
v -0.277305 -0.000000 -0.393333
v -0.239011 -0.000000 -0.404950
v -0.199186 0.660643 -0.204736
vt 0.471811 0.236060
vt 0.253919 0.236060
vt 0.467624 0.195503
vt 0.455225 0.156505
vt 0.435090 0.120564
vt 0.407992 0.089062
vt 0.374973 0.063208
vt 0.337303 0.043998
vt 0.296428 0.032168
vt 0.253919 0.028173
vt 0.211410 0.032168
vt 0.170535 0.043998
vt 0.132864 0.063208
vt 0.099846 0.089062
vt 0.072748 0.120564
vt 0.052613 0.156505
vt 0.040213 0.195503
vt 0.036027 0.236060
vt 0.040213 0.276617
vt 0.052613 0.315615
vt 0.072748 0.351556
vt 0.099846 0.383059
vt 0.132864 0.408912
vt 0.170535 0.428123
vt 0.211410 0.439953
vt 0.253919 0.443947
vt 0.296427 0.439953
vt 0.337303 0.428123
vt 0.374973 0.408912
vt 0.407992 0.383059
vt 0.435089 0.351556
vt 0.455225 0.315615
vt 0.467624 0.276617
vt 0.973631 0.251866
vt 0.755738 0.251866
vt 0.969444 0.211309
vt 0.957044 0.172311
vt 0.936909 0.136370
vt 0.909811 0.104867
vt 0.876793 0.079014
vt 0.839122 0.059803
vt 0.798247 0.047973
vt 0.755738 0.043979
vt 0.713230 0.047973
vt 0.672355 0.059803
vt 0.634684 0.079014
vt 0.601665 0.104867
vt 0.574568 0.136370
vt 0.554432 0.172311
vt 0.542033 0.211309
vt 0.537846 0.251866
vt 0.542033 0.292422
vt 0.554432 0.331421
vt 0.574568 0.367362
vt 0.601665 0.398864
vt 0.634684 0.424717
vt 0.672355 0.443928
vt 0.713230 0.455758
vt 0.755738 0.459753
vt 0.798247 0.455758
vt 0.839122 0.443928
vt 0.876793 0.424718
vt 0.909811 0.398864
vt 0.936909 0.367362
vt 0.957044 0.331421
vt 0.969444 0.292422
vt 0.451047 0.776022
vt 0.233155 0.776022
vt 0.446860 0.735465
vt 0.434461 0.696467
vt 0.414326 0.660526
vt 0.387228 0.629024
vt 0.354209 0.603170
vt 0.316539 0.583960
vt 0.275664 0.572130
vt 0.233155 0.568135
vt 0.190646 0.572130
vt 0.149771 0.583960
vt 0.112101 0.603170
vt 0.079082 0.629024
vt 0.051984 0.660526
vt 0.031849 0.696467
vt 0.019449 0.735465
vt 0.015263 0.776022
vt 0.019449 0.816579
vt 0.031849 0.855577
vt 0.051984 0.891518
vt 0.079082 0.923020
vt 0.112101 0.948874
vt 0.149771 0.968085
vt 0.190646 0.979915
vt 0.233155 0.983909
vt 0.275664 0.979915
vt 0.316539 0.968085
vt 0.354209 0.948874
vt 0.387228 0.923021
vt 0.414326 0.891518
vt 0.434461 0.855577
vt 0.446860 0.816579
vt 0.923527 0.691777
vt 0.705634 0.691777
vt 0.919340 0.651220
vt 0.906940 0.612222
vt 0.886805 0.576281
vt 0.859708 0.544779
vt 0.826689 0.518925
vt 0.789018 0.499714
vt 0.748143 0.487884
vt 0.705635 0.483890
vt 0.663126 0.487884
vt 0.622251 0.499714
vt 0.584580 0.518925
vt 0.551561 0.544778
vt 0.524464 0.576281
vt 0.504328 0.612222
vt 0.491929 0.651220
vt 0.487742 0.691777
vt 0.491929 0.732334
vt 0.504328 0.771332
vt 0.524464 0.807273
vt 0.551561 0.838775
vt 0.584580 0.864629
vt 0.622251 0.883839
vt 0.663126 0.895669
vt 0.705634 0.899664
vt 0.748143 0.895669
vt 0.789018 0.883839
vt 0.826689 0.864629
vt 0.859708 0.838775
vt 0.886805 0.807273
vt 0.906941 0.771332
vt 0.919340 0.732334
vn 0.0937 0.2939 -0.9512
vn 0.2775 0.2939 -0.9147
vn 0.4506 0.2939 -0.8430
vn 0.6064 0.2939 -0.7389
vn 0.7389 0.2939 -0.6064
vn 0.8430 0.2939 -0.4506
vn 0.9147 0.2939 -0.2775
vn 0.9512 0.2939 -0.0937
vn 0.9512 0.2939 0.0937
vn 0.9147 0.2939 0.2775
vn 0.8430 0.2939 0.4506
vn 0.7389 0.2939 0.6064
vn 0.6064 0.2939 0.7389
vn 0.4506 0.2939 0.8430
vn 0.2775 0.2939 0.9147
vn 0.0937 0.2939 0.9512
vn -0.0937 0.2939 0.9512
vn -0.2775 0.2939 0.9147
vn -0.4506 0.2939 0.8430
vn -0.6064 0.2939 0.7389
vn -0.7389 0.2939 0.6064
vn -0.8430 0.2939 0.4506
vn -0.9147 0.2939 0.2775
vn -0.9512 0.2939 0.0937
vn -0.9512 0.2939 -0.0937
vn -0.9147 0.2939 -0.2775
vn -0.8430 0.2939 -0.4506
vn -0.7389 0.2939 -0.6064
vn -0.6064 0.2939 -0.7389
vn -0.4506 0.2939 -0.8430
vn 0.0000 -1.0000 -0.0000
vn -0.2775 0.2939 -0.9147
vn -0.0937 0.2939 -0.9512
usemtl None
s off
f 1/1/1 33/2/1 2/3/1
f 2/3/2 33/2/2 3/4/2
f 3/4/3 33/2/3 4/5/3
f 4/5/4 33/2/4 5/6/4
f 5/6/5 33/2/5 6/7/5
f 6/7/6 33/2/6 7/8/6
f 7/8/7 33/2/7 8/9/7
f 8/9/8 33/2/8 9/10/8
f 9/10/9 33/2/9 10/11/9
f 10/11/10 33/2/10 11/12/10
f 11/12/11 33/2/11 12/13/11
f 12/13/12 33/2/12 13/14/12
f 13/14/13 33/2/13 14/15/13
f 14/15/14 33/2/14 15/16/14
f 15/16/15 33/2/15 16/17/15
f 16/17/16 33/2/16 17/18/16
f 17/18/17 33/2/17 18/19/17
f 18/19/18 33/2/18 19/20/18
f 19/20/19 33/2/19 20/21/19
f 20/21/20 33/2/20 21/22/20
f 21/22/21 33/2/21 22/23/21
f 22/23/22 33/2/22 23/24/22
f 23/24/23 33/2/23 24/25/23
f 24/25/24 33/2/24 25/26/24
f 25/26/25 33/2/25 26/27/25
f 26/27/26 33/2/26 27/28/26
f 27/28/27 33/2/27 28/29/27
f 28/29/28 33/2/28 29/30/28
f 29/30/29 33/2/29 30/31/29
f 30/31/30 33/2/30 31/32/30
f 24/25/31 28/29/31 32/33/31
f 31/32/32 33/2/32 32/33/32
f 32/33/33 33/2/33 1/1/33
f 34/34/1 66/35/1 35/36/1
f 35/36/2 66/35/2 36/37/2
f 36/37/3 66/35/3 37/38/3
f 37/38/4 66/35/4 38/39/4
f 38/39/5 66/35/5 39/40/5
f 39/40/6 66/35/6 40/41/6
f 40/41/7 66/35/7 41/42/7
f 41/42/8 66/35/8 42/43/8
f 42/43/9 66/35/9 43/44/9
f 43/44/10 66/35/10 44/45/10
f 44/45/11 66/35/11 45/46/11
f 45/46/12 66/35/12 46/47/12
f 46/47/13 66/35/13 47/48/13
f 47/48/14 66/35/14 48/49/14
f 48/49/15 66/35/15 49/50/15
f 49/50/16 66/35/16 50/51/16
f 50/51/17 66/35/17 51/52/17
f 51/52/18 66/35/18 52/53/18
f 52/53/19 66/35/19 53/54/19
f 53/54/20 66/35/20 54/55/20
f 54/55/21 66/35/21 55/56/21
f 55/56/22 66/35/22 56/57/22
f 56/57/23 66/35/23 57/58/23
f 57/58/24 66/35/24 58/59/24
f 58/59/25 66/35/25 59/60/25
f 59/60/26 66/35/26 60/61/26
f 60/61/27 66/35/27 61/62/27
f 61/62/28 66/35/28 62/63/28
f 62/63/29 66/35/29 63/64/29
f 63/64/30 66/35/30 64/65/30
f 65/66/31 41/42/31 49/50/31
f 64/65/32 66/35/32 65/66/32
f 65/66/33 66/35/33 34/34/33
f 67/67/1 99/68/1 68/69/1
f 68/69/2 99/68/2 69/70/2
f 69/70/3 99/68/3 70/71/3
f 70/71/4 99/68/4 71/72/4
f 71/72/5 99/68/5 72/73/5
f 72/73/6 99/68/6 73/74/6
f 73/74/7 99/68/7 74/75/7
f 74/75/8 99/68/8 75/76/8
f 75/76/9 99/68/9 76/77/9
f 76/77/10 99/68/10 77/78/10
f 77/78/11 99/68/11 78/79/11
f 78/79/12 99/68/12 79/80/12
f 79/80/13 99/68/13 80/81/13
f 80/81/14 99/68/14 81/82/14
f 81/82/15 99/68/15 82/83/15
f 82/83/16 99/68/16 83/84/16
f 83/84/17 99/68/17 84/85/17
f 84/85/18 99/68/18 85/86/18
f 85/86/19 99/68/19 86/87/19
f 86/87/20 99/68/20 87/88/20
f 87/88/21 99/68/21 88/89/21
f 88/89/22 99/68/22 89/90/22
f 89/90/23 99/68/23 90/91/23
f 90/91/24 99/68/24 91/92/24
f 91/92/25 99/68/25 92/93/25
f 92/93/26 99/68/26 93/94/26
f 93/94/27 99/68/27 94/95/27
f 94/95/28 99/68/28 95/96/28
f 95/96/29 99/68/29 96/97/29
f 96/97/30 99/68/30 97/98/30
f 82/83/31 90/91/31 98/99/31
f 97/98/32 99/68/32 98/99/32
f 98/99/33 99/68/33 67/67/33
f 100/100/1 132/101/1 101/102/1
f 101/102/2 132/101/2 102/103/2
f 102/103/3 132/101/3 103/104/3
f 103/104/4 132/101/4 104/105/4
f 104/105/5 132/101/5 105/106/5
f 105/106/6 132/101/6 106/107/6
f 106/107/7 132/101/7 107/108/7
f 107/108/8 132/101/8 108/109/8
f 108/109/9 132/101/9 109/110/9
f 109/110/10 132/101/10 110/111/10
f 110/111/11 132/101/11 111/112/11
f 111/112/12 132/101/12 112/113/12
f 112/113/13 132/101/13 113/114/13
f 113/114/14 132/101/14 114/115/14
f 114/115/15 132/101/15 115/116/15
f 115/116/16 132/101/16 116/117/16
f 116/117/17 132/101/17 117/118/17
f 117/118/18 132/101/18 118/119/18
f 118/119/19 132/101/19 119/120/19
f 119/120/20 132/101/20 120/121/20
f 120/121/21 132/101/21 121/122/21
f 121/122/22 132/101/22 122/123/22
f 122/123/23 132/101/23 123/124/23
f 123/124/24 132/101/24 124/125/24
f 124/125/25 132/101/25 125/126/25
f 125/126/26 132/101/26 126/127/26
f 126/127/27 132/101/27 127/128/27
f 127/128/28 132/101/28 128/129/28
f 128/129/29 132/101/29 129/130/29
f 129/130/30 132/101/30 130/131/30
f 107/108/31 115/116/31 123/124/31
f 130/131/32 132/101/32 131/132/32
f 131/132/33 132/101/33 100/100/33
f 32/33/31 1/1/31 2/3/31
f 2/3/31 3/4/31 4/5/31
f 4/5/31 5/6/31 8/9/31
f 5/6/31 6/7/31 8/9/31
f 6/7/31 7/8/31 8/9/31
f 8/9/31 9/10/31 12/13/31
f 9/10/31 10/11/31 12/13/31
f 10/11/31 11/12/31 12/13/31
f 12/13/31 13/14/31 16/17/31
f 13/14/31 14/15/31 16/17/31
f 14/15/31 15/16/31 16/17/31
f 16/17/31 17/18/31 20/21/31
f 17/18/31 18/19/31 20/21/31
f 18/19/31 19/20/31 20/21/31
f 20/21/31 21/22/31 24/25/31
f 21/22/31 22/23/31 24/25/31
f 22/23/31 23/24/31 24/25/31
f 24/25/31 25/26/31 28/29/31
f 25/26/31 26/27/31 28/29/31
f 26/27/31 27/28/31 28/29/31
f 28/29/31 29/30/31 30/31/31
f 30/31/31 31/32/31 32/33/31
f 32/33/31 2/3/31 4/5/31
f 28/29/31 30/31/31 32/33/31
f 32/33/31 4/5/31 16/17/31
f 4/5/31 8/9/31 16/17/31
f 8/9/31 12/13/31 16/17/31
f 16/17/31 20/21/31 32/33/31
f 20/21/31 24/25/31 32/33/31
f 65/66/31 34/34/31 35/36/31
f 35/36/31 36/37/31 37/38/31
f 37/38/31 38/39/31 41/42/31
f 38/39/31 39/40/31 41/42/31
f 39/40/31 40/41/31 41/42/31
f 41/42/31 42/43/31 45/46/31
f 42/43/31 43/44/31 45/46/31
f 43/44/31 44/45/31 45/46/31
f 45/46/31 46/47/31 47/48/31
f 47/48/31 48/49/31 49/50/31
f 49/50/31 50/51/31 51/52/31
f 51/52/31 52/53/31 49/50/31
f 52/53/31 53/54/31 49/50/31
f 53/54/31 54/55/31 55/56/31
f 55/56/31 56/57/31 57/58/31
f 57/58/31 58/59/31 61/62/31
f 58/59/31 59/60/31 61/62/31
f 59/60/31 60/61/31 61/62/31
f 61/62/31 62/63/31 63/64/31
f 63/64/31 64/65/31 61/62/31
f 64/65/31 65/66/31 61/62/31
f 65/66/31 35/36/31 41/42/31
f 35/36/31 37/38/31 41/42/31
f 45/46/31 47/48/31 41/42/31
f 47/48/31 49/50/31 41/42/31
f 53/54/31 55/56/31 57/58/31
f 49/50/31 53/54/31 65/66/31
f 53/54/31 57/58/31 65/66/31
f 57/58/31 61/62/31 65/66/31
f 98/99/31 67/67/31 68/69/31
f 68/69/31 69/70/31 98/99/31
f 69/70/31 70/71/31 98/99/31
f 70/71/31 71/72/31 72/73/31
f 72/73/31 73/74/31 74/75/31
f 74/75/31 75/76/31 76/77/31
f 76/77/31 77/78/31 78/79/31
f 78/79/31 79/80/31 80/81/31
f 80/81/31 81/82/31 78/79/31
f 81/82/31 82/83/31 78/79/31
f 82/83/31 83/84/31 84/85/31
f 84/85/31 85/86/31 82/83/31
f 85/86/31 86/87/31 82/83/31
f 86/87/31 87/88/31 88/89/31
f 88/89/31 89/90/31 86/87/31
f 89/90/31 90/91/31 86/87/31
f 90/91/31 91/92/31 92/93/31
f 92/93/31 93/94/31 94/95/31
f 94/95/31 95/96/31 98/99/31
f 95/96/31 96/97/31 98/99/31
f 96/97/31 97/98/31 98/99/31
f 70/71/31 72/73/31 74/75/31
f 74/75/31 76/77/31 78/79/31
f 90/91/31 92/93/31 98/99/31
f 92/93/31 94/95/31 98/99/31
f 98/99/31 70/71/31 82/83/31
f 70/71/31 74/75/31 82/83/31
f 74/75/31 78/79/31 82/83/31
f 82/83/31 86/87/31 90/91/31
f 131/132/31 100/100/31 101/102/31
f 101/102/31 102/103/31 103/104/31
f 103/104/31 104/105/31 107/108/31
f 104/105/31 105/106/31 107/108/31
f 105/106/31 106/107/31 107/108/31
f 107/108/31 108/109/31 109/110/31
f 109/110/31 110/111/31 111/112/31
f 111/112/31 112/113/31 113/114/31
f 113/114/31 114/115/31 115/116/31
f 115/116/31 116/117/31 119/120/31
f 116/117/31 117/118/31 119/120/31
f 117/118/31 118/119/31 119/120/31
f 119/120/31 120/121/31 121/122/31
f 121/122/31 122/123/31 119/120/31
f 122/123/31 123/124/31 119/120/31
f 123/124/31 124/125/31 125/126/31
f 125/126/31 126/127/31 127/128/31
f 127/128/31 128/129/31 131/132/31
f 128/129/31 129/130/31 131/132/31
f 129/130/31 130/131/31 131/132/31
f 131/132/31 101/102/31 107/108/31
f 101/102/31 103/104/31 107/108/31
f 107/108/31 109/110/31 111/112/31
f 111/112/31 113/114/31 115/116/31
f 123/124/31 125/126/31 131/132/31
f 125/126/31 127/128/31 131/132/31
f 107/108/31 111/112/31 115/116/31
f 115/116/31 119/120/31 123/124/31
f 131/132/31 107/108/31 123/124/31
